<?xml version="1.0"?>
<!DOCTYPE svg PUBLIC "-//W3C//DTD SVG 1.0//EN" "http://www.w3.org/TR/2001/REC-SVG-20010904/DTD/svg10.dtd">
<svg xmlns="http://www.w3.org/2000/svg" xmlns:xlink="http://www.w3.org/1999/xlink" xmlns:jfreesvg="http://www.jfree.org/jfreesvg/svg" width="1298" height="923" text-rendering="auto" shape-rendering="auto">
<defs></defs>
<line x1="298.21" y1="668.8" x2="120" y2="803.01" style="stroke-width: 0.5;stroke: rgb(0,0,0);stroke-opacity: 1.0;stroke-linecap: square;" /><g ><text x="206.1" y="742.8" style="fill: rgb(0,0,0); fill-opacity: 1.0; font-family: Times New Roman; font-size: 12px;" >1</text></g><line x1="1044.41" y1="336.81" x2="901.22" y2="358.98" style="stroke-width: 0.5;stroke: rgb(0,0,0);stroke-opacity: 1.0;stroke-linecap: square;" /><g ><text x="969.82" y="354.79" style="fill: rgb(0,0,0); fill-opacity: 1.0; font-family: Times New Roman; font-size: 12px;" >1</text></g><line x1="266.02" y1="453.3" x2="370.34" y2="498.1" style="stroke-width: 0.5;stroke: rgb(0,0,0);stroke-opacity: 1.0;stroke-linecap: square;" /><g ><text x="315.18" y="482.6" style="fill: rgb(0,0,0); fill-opacity: 1.0; font-family: Times New Roman; font-size: 12px;" >1</text></g><line x1="506.1" y1="237.95" x2="586.61" y2="335.97" style="stroke-width: 0.5;stroke: rgb(0,0,0);stroke-opacity: 1.0;stroke-linecap: square;" /><g ><text x="543.36" y="293.86" style="fill: rgb(0,0,0); fill-opacity: 1.0; font-family: Times New Roman; font-size: 12px;" >1</text></g><line x1="512.01" y1="767.61" x2="519.09" y2="580.96" style="stroke-width: 0.5;stroke: rgb(0,0,0);stroke-opacity: 1.0;stroke-linecap: square;" /><g ><text x="512.55" y="681.18" style="fill: rgb(0,0,0); fill-opacity: 1.0; font-family: Times New Roman; font-size: 12px;" >2</text></g><line x1="519.09" y1="580.96" x2="415.15" y2="710.48" style="stroke-width: 0.5;stroke: rgb(0,0,0);stroke-opacity: 1.0;stroke-linecap: square;" /><g ><text x="464.12" y="652.62" style="fill: rgb(0,0,0); fill-opacity: 1.0; font-family: Times New Roman; font-size: 12px;" >2</text></g><line x1="455.54" y1="120" x2="506.1" y2="237.95" style="stroke-width: 0.5;stroke: rgb(0,0,0);stroke-opacity: 1.0;stroke-linecap: square;" /><g ><text x="477.82" y="185.87" style="fill: rgb(0,0,0); fill-opacity: 1.0; font-family: Times New Roman; font-size: 12px;" >3</text></g><line x1="298.21" y1="668.8" x2="519.09" y2="580.96" style="stroke-width: 0.5;stroke: rgb(0,0,0);stroke-opacity: 1.0;stroke-linecap: square;" /><g ><text x="405.65" y="631.78" style="fill: rgb(0,0,0); fill-opacity: 1.0; font-family: Times New Roman; font-size: 12px;" >4</text></g><line x1="1178.91" y1="342.02" x2="1044.41" y2="336.81" style="stroke-width: 0.5;stroke: rgb(0,0,0);stroke-opacity: 1.0;stroke-linecap: square;" /><g ><text x="1108.66" y="346.31" style="fill: rgb(0,0,0); fill-opacity: 1.0; font-family: Times New Roman; font-size: 12px;" >4</text></g><line x1="519.09" y1="580.96" x2="617.1" y2="728.91" style="stroke-width: 0.5;stroke: rgb(0,0,0);stroke-opacity: 1.0;stroke-linecap: square;" /><g ><text x="565.1" y="661.83" style="fill: rgb(0,0,0); fill-opacity: 1.0; font-family: Times New Roman; font-size: 12px;" >4</text></g><line x1="519.09" y1="580.96" x2="684.9" y2="634.24" style="stroke-width: 0.5;stroke: rgb(0,0,0);stroke-opacity: 1.0;stroke-linecap: square;" /><g ><text x="598.99" y="614.5" style="fill: rgb(0,0,0); fill-opacity: 1.0; font-family: Times New Roman; font-size: 12px;" >4</text></g><line x1="653.21" y1="239.72" x2="586.61" y2="335.97" style="stroke-width: 0.5;stroke: rgb(0,0,0);stroke-opacity: 1.0;stroke-linecap: square;" /><g ><text x="616.91" y="294.74" style="fill: rgb(0,0,0); fill-opacity: 1.0; font-family: Times New Roman; font-size: 12px;" >4</text></g><line x1="519.09" y1="580.96" x2="370.34" y2="498.1" style="stroke-width: 0.5;stroke: rgb(0,0,0);stroke-opacity: 1.0;stroke-linecap: square;" /><g ><text x="441.71" y="546.43" style="fill: rgb(0,0,0); fill-opacity: 1.0; font-family: Times New Roman; font-size: 12px;" >6</text></g><line x1="586.61" y1="335.97" x2="649.8" y2="445.83" style="stroke-width: 0.5;stroke: rgb(0,0,0);stroke-opacity: 1.0;stroke-linecap: square;" /><g ><text x="615.2" y="397.8" style="fill: rgb(0,0,0); fill-opacity: 1.0; font-family: Times New Roman; font-size: 12px;" >8</text></g><line x1="519.09" y1="580.96" x2="649.8" y2="445.83" style="stroke-width: 0.5;stroke: rgb(0,0,0);stroke-opacity: 1.0;stroke-linecap: square;" /><g ><text x="581.44" y="520.29" style="fill: rgb(0,0,0); fill-opacity: 1.0; font-family: Times New Roman; font-size: 12px;" >6</text></g><line x1="901.22" y1="358.98" x2="780.32" y2="412.12" style="stroke-width: 0.5;stroke: rgb(0,0,0);stroke-opacity: 1.0;stroke-linecap: square;" /><g ><text x="837.77" y="392.45" style="fill: rgb(0,0,0); fill-opacity: 1.0; font-family: Times New Roman; font-size: 12px;" >9</text></g><line x1="861.16" y1="496.92" x2="780.32" y2="412.12" style="stroke-width: 0.5;stroke: rgb(0,0,0);stroke-opacity: 1.0;stroke-linecap: square;" /><g ><text x="817.74" y="461.42" style="fill: rgb(0,0,0); fill-opacity: 1.0; font-family: Times New Roman; font-size: 12px;" >9</text></g><line x1="649.8" y1="445.83" x2="780.32" y2="412.12" style="stroke-width: 0.5;stroke: rgb(0,0,0);stroke-opacity: 1.0;stroke-linecap: square;" /><g ><text x="709.06" y="435.87" style="fill: rgb(0,0,0); fill-opacity: 1.0; font-family: Times New Roman; font-size: 12px;" >55</text></g><ellipse cx="455.54" cy="120" rx="16.51" ry="16.51" style="fill: rgb(255,255,255); fill-opacity: 1.0" /><ellipse cx="455.54" cy="120" rx="16.51" ry="16.51" style="stroke-width: 0.5;stroke: rgb(0,0,0);stroke-opacity: 1.0;stroke-linecap: square;; fill: none" /><ellipse cx="455.54" cy="120" rx="16.51" ry="16.51" style="fill: rgb(178,223,138); fill-opacity: 1.0" /><ellipse cx="512.01" cy="767.61" rx="21.16" ry="21.16" style="fill: rgb(255,255,255); fill-opacity: 1.0" /><ellipse cx="512.01" cy="767.61" rx="21.16" ry="21.16" style="stroke-width: 0.5;stroke: rgb(0,0,0);stroke-opacity: 1.0;stroke-linecap: square;; fill: none" /><ellipse cx="512.01" cy="767.61" rx="21.16" ry="21.16" style="fill: rgb(253,191,111); fill-opacity: 1.0" /><ellipse cx="298.21" cy="668.8" rx="50" ry="50" style="fill: rgb(255,255,255); fill-opacity: 1.0" /><ellipse cx="298.21" cy="668.8" rx="50" ry="50" style="stroke-width: 0.5;stroke: rgb(0,0,0);stroke-opacity: 1.0;stroke-linecap: square;; fill: none" /><g style="fill: rgb(227,26,28); fill-opacity: 1.0; stroke: none" ><path d="M 348.21 668.8 C 348.21 649.22 336.78 631.45 318.98 623.32 L 298.21 668.8 Z "/></g><g style="fill: rgb(31,120,180); fill-opacity: 1.0; stroke: none" ><path d="M 318.98 623.32 C 298.79 614.1 274.95 619.29 260.42 636.06 C 245.89 652.83 244.15 677.17 256.14 695.83 C 268.14 714.5 291 723.03 312.29 716.77 L 298.21 668.8 Z "/></g><g style="fill: rgb(166,206,227); fill-opacity: 1.0; stroke: none" ><path d="M 312.29 716.77 C 333.58 710.52 348.21 690.99 348.21 668.8 L 298.21 668.8 Z "/></g><ellipse cx="120" cy="803.01" rx="44.42" ry="44.42" style="fill: rgb(255,255,255); fill-opacity: 1.0" /><ellipse cx="120" cy="803.01" rx="44.42" ry="44.42" style="stroke-width: 0.5;stroke: rgb(0,0,0);stroke-opacity: 1.0;stroke-linecap: square;; fill: none" /><ellipse cx="120" cy="803.01" rx="44.42" ry="44.42" style="fill: rgb(166,206,227); fill-opacity: 1.0" /><ellipse cx="519.09" cy="580.96" rx="46.28" ry="46.28" style="fill: rgb(255,255,255); fill-opacity: 1.0" /><ellipse cx="519.09" cy="580.96" rx="46.28" ry="46.28" style="stroke-width: 0.5;stroke: rgb(0,0,0);stroke-opacity: 1.0;stroke-linecap: square;; fill: none" /><g style="fill: rgb(227,26,28); fill-opacity: 1.0; stroke: none" ><path d="M 565.37 580.96 C 565.37 573.65 563.64 566.45 560.32 559.95 L 519.09 580.96 Z "/></g><g style="fill: rgb(251,154,153); fill-opacity: 1.0; stroke: none" ><path d="M 560.32 559.95 C 549.67 539.05 525.07 529.42 503.07 537.54 C 481.06 545.66 468.61 568.95 474.09 591.76 C 479.56 614.57 501.23 629.67 524.53 626.92 C 547.82 624.16 565.37 604.41 565.37 580.96 L 519.09 580.96 Z "/></g><ellipse cx="1178.91" cy="342.02" rx="10.93" ry="10.93" style="fill: rgb(255,255,255); fill-opacity: 1.0" /><ellipse cx="1178.91" cy="342.02" rx="10.93" ry="10.93" style="stroke-width: 0.5;stroke: rgb(0,0,0);stroke-opacity: 1.0;stroke-linecap: square;; fill: none" /><ellipse cx="1178.91" cy="342.02" rx="10.93" ry="10.93" style="fill: rgb(202,178,214); fill-opacity: 1.0" /><ellipse cx="1044.41" cy="336.81" rx="23.95" ry="23.95" style="fill: rgb(255,255,255); fill-opacity: 1.0" /><ellipse cx="1044.41" cy="336.81" rx="23.95" ry="23.95" style="stroke-width: 0.5;stroke: rgb(0,0,0);stroke-opacity: 1.0;stroke-linecap: square;; fill: none" /><ellipse cx="1044.41" cy="336.81" rx="23.95" ry="23.95" style="fill: rgb(202,178,214); fill-opacity: 1.0" /><ellipse cx="617.1" cy="728.91" rx="15.58" ry="15.58" style="fill: rgb(255,255,255); fill-opacity: 1.0" /><ellipse cx="617.1" cy="728.91" rx="15.58" ry="15.58" style="stroke-width: 0.5;stroke: rgb(0,0,0);stroke-opacity: 1.0;stroke-linecap: square;; fill: none" /><g style="fill: rgb(178,223,138); fill-opacity: 1.0; stroke: none" ><path d="M 632.68 728.91 C 632.68 721.64 627.66 715.34 620.57 713.72 C 613.48 712.1 606.22 715.6 603.06 722.15 L 617.1 728.91 Z "/></g><g style="fill: rgb(106,61,154); fill-opacity: 1.0; stroke: none" ><path d="M 603.06 722.15 C 600.28 727.92 601.32 734.81 605.68 739.51 C 610.04 744.2 616.83 745.75 622.8 743.41 C 628.76 741.07 632.68 735.32 632.68 728.91 L 617.1 728.91 Z "/></g><ellipse cx="684.9" cy="634.24" rx="14.65" ry="14.65" style="fill: rgb(255,255,255); fill-opacity: 1.0" /><ellipse cx="684.9" cy="634.24" rx="14.65" ry="14.65" style="stroke-width: 0.5;stroke: rgb(0,0,0);stroke-opacity: 1.0;stroke-linecap: square;; fill: none" /><ellipse cx="684.9" cy="634.24" rx="14.65" ry="14.65" style="fill: rgb(178,223,138); fill-opacity: 1.0" /><ellipse cx="506.1" cy="237.95" rx="13.72" ry="13.72" style="fill: rgb(255,255,255); fill-opacity: 1.0" /><ellipse cx="506.1" cy="237.95" rx="13.72" ry="13.72" style="stroke-width: 0.5;stroke: rgb(0,0,0);stroke-opacity: 1.0;stroke-linecap: square;; fill: none" /><ellipse cx="506.1" cy="237.95" rx="13.72" ry="13.72" style="fill: rgb(178,223,138); fill-opacity: 1.0" /><ellipse cx="266.02" cy="453.3" rx="10" ry="10" style="fill: rgb(255,255,255); fill-opacity: 1.0" /><ellipse cx="266.02" cy="453.3" rx="10" ry="10" style="stroke-width: 0.5;stroke: rgb(0,0,0);stroke-opacity: 1.0;stroke-linecap: square;; fill: none" /><ellipse cx="266.02" cy="453.3" rx="10" ry="10" style="fill: rgb(202,178,214); fill-opacity: 1.0" /><ellipse cx="901.22" cy="358.98" rx="13.72" ry="13.72" style="fill: rgb(255,255,255); fill-opacity: 1.0" /><ellipse cx="901.22" cy="358.98" rx="13.72" ry="13.72" style="stroke-width: 0.5;stroke: rgb(0,0,0);stroke-opacity: 1.0;stroke-linecap: square;; fill: none" /><ellipse cx="901.22" cy="358.98" rx="13.72" ry="13.72" style="fill: rgb(202,178,214); fill-opacity: 1.0" /><ellipse cx="370.34" cy="498.1" rx="10" ry="10" style="fill: rgb(255,255,255); fill-opacity: 1.0" /><ellipse cx="370.34" cy="498.1" rx="10" ry="10" style="stroke-width: 0.5;stroke: rgb(0,0,0);stroke-opacity: 1.0;stroke-linecap: square;; fill: none" /><ellipse cx="370.34" cy="498.1" rx="10" ry="10" style="fill: rgb(202,178,214); fill-opacity: 1.0" /><ellipse cx="653.21" cy="239.72" rx="11.86" ry="11.86" style="fill: rgb(255,255,255); fill-opacity: 1.0" /><ellipse cx="653.21" cy="239.72" rx="11.86" ry="11.86" style="stroke-width: 0.5;stroke: rgb(0,0,0);stroke-opacity: 1.0;stroke-linecap: square;; fill: none" /><ellipse cx="653.21" cy="239.72" rx="11.86" ry="11.86" style="fill: rgb(178,223,138); fill-opacity: 1.0" /><ellipse cx="415.15" cy="710.48" rx="10" ry="10" style="fill: rgb(255,255,255); fill-opacity: 1.0" /><ellipse cx="415.15" cy="710.48" rx="10" ry="10" style="stroke-width: 0.5;stroke: rgb(0,0,0);stroke-opacity: 1.0;stroke-linecap: square;; fill: none" /><ellipse cx="415.15" cy="710.48" rx="10" ry="10" style="fill: rgb(51,160,44); fill-opacity: 1.0" /><ellipse cx="861.16" cy="496.92" rx="11.86" ry="11.86" style="fill: rgb(255,255,255); fill-opacity: 1.0" /><ellipse cx="861.16" cy="496.92" rx="11.86" ry="11.86" style="stroke-width: 0.5;stroke: rgb(0,0,0);stroke-opacity: 1.0;stroke-linecap: square;; fill: none" /><ellipse cx="861.16" cy="496.92" rx="11.86" ry="11.86" style="fill: rgb(255,127,0); fill-opacity: 1.0" /><ellipse cx="586.61" cy="335.97" rx="10" ry="10" style="fill: rgb(255,255,255); fill-opacity: 1.0" /><ellipse cx="586.61" cy="335.97" rx="10" ry="10" style="stroke-width: 0.5;stroke: rgb(0,0,0);stroke-opacity: 1.0;stroke-linecap: square;; fill: none" /><ellipse cx="586.61" cy="335.97" rx="10" ry="10" style="fill: rgb(255,255,255); fill-opacity: 1.0" /><ellipse cx="649.8" cy="445.83" rx="10" ry="10" style="fill: rgb(255,255,255); fill-opacity: 1.0" /><ellipse cx="649.8" cy="445.83" rx="10" ry="10" style="stroke-width: 0.5;stroke: rgb(0,0,0);stroke-opacity: 1.0;stroke-linecap: square;; fill: none" /><ellipse cx="649.8" cy="445.83" rx="10" ry="10" style="fill: rgb(255,255,255); fill-opacity: 1.0" /><ellipse cx="780.32" cy="412.12" rx="10" ry="10" style="fill: rgb(255,255,255); fill-opacity: 1.0" /><ellipse cx="780.32" cy="412.12" rx="10" ry="10" style="stroke-width: 0.5;stroke: rgb(0,0,0);stroke-opacity: 1.0;stroke-linecap: square;; fill: none" /><ellipse cx="780.32" cy="412.12" rx="10" ry="10" style="fill: rgb(255,255,255); fill-opacity: 1.0" /><rect x="20" y="17" width="16" height="16" style="fill: rgb(166,206,227); fill-opacity: 1.0" /><g ><text x="40" y="30" style="fill: rgb(0,0,0); fill-opacity: 1.0; font-family: Times New Roman; font-size: 12px;" >Cheatham_(_Tennessee_)</text></g><rect x="20" y="37" width="16" height="16" style="fill: rgb(31,120,180); fill-opacity: 1.0" /><g ><text x="40" y="50" style="fill: rgb(0,0,0); fill-opacity: 1.0; font-family: Times New Roman; font-size: 12px;" >Davidson_(_Tennessee_)</text></g><rect x="20" y="57" width="16" height="16" style="fill: rgb(178,223,138); fill-opacity: 1.0" /><g ><text x="40" y="70" style="fill: rgb(0,0,0); fill-opacity: 1.0; font-family: Times New Roman; font-size: 12px;" >Franklin_(_Kentucky_)</text></g><rect x="20" y="77" width="16" height="16" style="fill: rgb(51,160,44); fill-opacity: 1.0" /><g ><text x="40" y="90" style="fill: rgb(0,0,0); fill-opacity: 1.0; font-family: Times New Roman; font-size: 12px;" >Madison_(_Kentucky_)</text></g><rect x="20" y="97" width="16" height="16" style="fill: rgb(251,154,153); fill-opacity: 1.0" /><g ><text x="40" y="110" style="fill: rgb(0,0,0); fill-opacity: 1.0; font-family: Times New Roman; font-size: 12px;" >Montgomery_(_Tennessee_)</text></g><rect x="20" y="117" width="16" height="16" style="fill: rgb(227,26,28); fill-opacity: 1.0" /><g ><text x="40" y="130" style="fill: rgb(0,0,0); fill-opacity: 1.0; font-family: Times New Roman; font-size: 12px;" >NA_(_NA_)</text></g><rect x="20" y="137" width="16" height="16" style="fill: rgb(253,191,111); fill-opacity: 1.0" /><g ><text x="40" y="150" style="fill: rgb(0,0,0); fill-opacity: 1.0; font-family: Times New Roman; font-size: 12px;" >Posey_(_Indiana_)</text></g><rect x="20" y="157" width="16" height="16" style="fill: rgb(255,127,0); fill-opacity: 1.0" /><g ><text x="40" y="170" style="fill: rgb(0,0,0); fill-opacity: 1.0; font-family: Times New Roman; font-size: 12px;" >Smith_(_Tennessee_)</text></g><rect x="20" y="177" width="16" height="16" style="fill: rgb(202,178,214); fill-opacity: 1.0" /><g ><text x="40" y="190" style="fill: rgb(0,0,0); fill-opacity: 1.0; font-family: Times New Roman; font-size: 12px;" >Trousdale_(_Tennessee_)</text></g><rect x="20" y="197" width="16" height="16" style="fill: rgb(106,61,154); fill-opacity: 1.0" /><g ><text x="40" y="210" style="fill: rgb(0,0,0); fill-opacity: 1.0; font-family: Times New Roman; font-size: 12px;" >Woodford_(_Kentucky_)</text></g></svg>
